<svg xmlns="http://www.w3.org/2000/svg" data-name="Layer 1" viewBox="0 0 100 100"><path fill="#34a853" d="M81.34 72.009a10.015 10.015 0 0010-10c-.549-13.271-19.46-13.268-20.007 0A10.015 10.015 0 0081.34 72.009zM81.34 55a7.012 7.012 0 017 7c-.329 9.268-13.68 9.266-14.007 0A7.012 7.012 0 0181.34 55zM52.243 24.144a10.014 10.014 0 00-10-10c-13.27.549-13.266 19.459 0 20.006A10.014 10.014 0 0052.243 24.144zm-17.007 0a7.011 7.011 0 017-7c9.27.328 9.268 13.679 0 14.006A7.011 7.011 0 0135.236 24.144zM56.349 58.454a1.5 1.5 0 00.052-2.121l-19.031-20a10.181 10.181 0 00-16.426 2.549L11.707 57.871a1.5 1.5 0 002.7 1.313L23.642 40.2A7.116 7.116 0 0135.2 38.4l19.032 20A1.5 1.5 0 0056.349 58.454z" class="color000000 svgShape"></path><path fill="#34a853" d="M34.783 49.205a1.5 1.5 0 000 2.121l8.262 8.262a1.5 1.5 0 102.121-2.121L36.9 49.205A1.5 1.5 0 0034.783 49.205zM89.038 74.936H74.3L63.054 63.694a6.448 6.448 0 00-4.587-1.9H7a1.5 1.5 0 000 3H58.467a3.47 3.47 0 012.466 1.021L72.613 77.5a1.5 1.5 0 001.061.44H89.038a2.462 2.462 0 010 4.923H70.623l-6.277-6.277a5.586 5.586 0 00-3.974-1.646H47.842a1.5 1.5 0 000 3h12.53a2.606 2.606 0 011.853.767l6.716 6.717A1.519 1.519 0 0070 85.859H89.038C96.243 85.635 96.266 75.167 89.038 74.936z" class="color000000 svgShape"></path></svg>