<svg xmlns="http://www.w3.org/2000/svg" viewBox="0 0 66 66"><path fill="#34a853" d="M11 20.4c-.3.4-.2 1 .2 1.4.4.3 8.7 6.4 14.6 9.1 4.9 2.2 3.1 6.6 4 13.8.7 5.5 3 17.3 4 19.2.2.3.5.5.9.5.1 0 .3 0 .4-.1.5-.2.7-.8.5-1.3-.8-1.6-3.1-13.1-3.8-18.6-.8-6.8 1-12.5-5.1-15.3-5.7-2.6-14.2-8.9-14.3-8.9C12 19.8 11.4 19.9 11 20.4zM53.2 63.1c0 .5.5.9 1 .9 0 0 0 0 .1 0 .5 0 .9-.5.9-1l-2-29.7C51.7 18.9 31.6 1.9 30.8 1.2c-.4-.3-1-.3-1.4.1-.3.4-.3 1 .1 1.4.2.2 20.3 17.2 21.7 30.8L53.2 63.1z" class="color000000 svgShape"></path><path fill="#34a853" d="M21.5,2.2c-0.3,0-0.5,0.1-0.7,0.3l-4,3.9c-0.2,0.2-0.3,0.5-0.3,0.7c0,0.3,0.1,0.5,0.4,0.7C17,7.9,29.3,17.9,32.8,25.4  c0.9,1.9,0.5,3.5,0.1,5c-0.5,1.8-1.1,4,1.9,5.4c2.5,1.5,6,1.1,7.9-2.2c3.8-6.4-1-11.2-9.7-19.9C29.8,10.6,26.2,7,22.2,2.5  C22,2.3,21.7,2.2,21.5,2.2z M31.6,15.1c8.8,8.8,12.3,12.6,9.4,17.5c-1.3,2.2-3.4,2.5-5.3,1.5c-1.6-0.7-1.4-1.4-0.9-3.2  c0.4-1.6,1-3.8-0.2-6.4C31.4,17.8,21.8,9.4,18.9,7l2.5-2.4C25.2,8.7,28.6,12.1,31.6,15.1z" class="color000000 svgShape"></path><path fill="#34a853" d="M46.2 64.7h3.7c.5 0 .9-.4 1-.9.2-4.4.7-26-6-27.2-.4-.1-1-.1-1.8-.1-4.7 0-7.7 1.5-8.2 4.2-.2 1 .3 2.1 1.7 2.8.4.2.9.5.9 1.2.2 4.3.9 14.8 2.1 19.6.1.4.5.7.9.7h2.8c0 0 0 0 0 0 .5 0 1-.4 1-1 0-.1 0-.2 0-.3-.2-1.5-1.3-11.9-1.8-17.3.9 2.3 1.9 7.2 2.7 17.4C45.3 64.3 45.7 64.7 46.2 64.7zM42.3 43.6c-1 0-1.9.9-1.8 1.9C41 50 42 59.8 42.4 63.1h-1c-1.1-4.9-1.7-14.4-1.9-18.5-.1-2.7-2.8-2.7-2.7-3.6.4-2.4 4.9-2.6 6.3-2.6 1.1 0 1.3.1 1.4.1 3.6.5 4.7 14.2 4.4 24.3h-1.8c-.7-9.5-1.8-15.5-3.3-18.3C43.5 44 43 43.6 42.3 43.6zM46.2 33.3c.5.2 1.1-.1 1.2-.6 1.6-5.1-1.7-8.3-1.8-8.4-.4-.4-1-.4-1.4 0-.4.4-.4 1 0 1.4 0 0 2.5 2.5 1.3 6.5C45.4 32.6 45.7 33.1 46.2 33.3z" class="color000000 svgShape"></path></svg>