<svg xmlns="http://www.w3.org/2000/svg" fill-rule="evenodd" stroke-linejoin="round" stroke-miterlimit="2" clip-rule="evenodd" viewBox="0 0 32 32"><rect width="32" height="32" fill="none"></rect><path fill="#34a853" d="M16,7.202c-3.046,-4.791 -8.502,-4.614 -11.292,-1.965c-2.861,2.719 -2.96,8.154 -0.101,13.59c1.952,3.968 6.949,7.95 11.125,10.595c0.164,0.104 0.372,0.104 0.536,0c4.176,-2.645 9.173,-6.627 11.125,-10.595c2.859,-5.436 2.76,-10.871 -0.101,-13.589c-2.79,-2.65 -8.246,-2.827 -11.292,1.965l-0,-0.001Zm-9.75,8.798l3,0c0.133,0 0.26,-0.053 0.354,-0.146l1.463,-1.464c0,-0 1.719,4.296 1.719,4.296c0.077,0.193 0.266,0.318 0.473,0.314c0.208,-0.004 0.392,-0.136 0.462,-0.332l1.976,-5.533c0,-0 1.572,5.502 1.572,5.502c0.057,0.199 0.229,0.342 0.435,0.361c0.205,0.019 0.401,-0.09 0.493,-0.274l2.19,-4.38c-0,0 1.509,1.51 1.509,1.51c0.094,0.093 0.221,0.146 0.354,0.146l3.5,0c0.276,0 0.5,-0.224 0.5,-0.5c0,-0.276 -0.224,-0.5 -0.5,-0.5l-3.293,0c0,0 -1.853,-1.854 -1.853,-1.854c-0.114,-0.113 -0.275,-0.165 -0.434,-0.14c-0.159,0.026 -0.295,0.127 -0.367,0.27l-1.925,3.851c-0,-0 -1.647,-5.764 -1.647,-5.764c-0.06,-0.209 -0.248,-0.356 -0.465,-0.363c-0.217,-0.007 -0.414,0.127 -0.487,0.332l-2.055,5.756c-0,-0 -1.51,-3.774 -1.51,-3.774c-0.062,-0.156 -0.199,-0.27 -0.363,-0.304c-0.165,-0.034 -0.336,0.018 -0.455,0.136l-1.853,1.854c-0,0 -2.793,0 -2.793,0c-0.276,0 -0.5,0.224 -0.5,0.5c0,0.276 0.224,0.5 0.5,0.5Z" class="color000000 svgShape"></path></svg>