<svg xmlns="http://www.w3.org/2000/svg" width="267" height="267" fill-rule="evenodd" stroke-linejoin="round" stroke-miterlimit="2" clip-rule="evenodd"><path fill="url(#a)" d="M50.24 148.888a4.167 4.167 0 0 0-4.167 4.166v38.952a33.233 33.233 0 0 0 33.235 33.234h107.129a33.233 33.233 0 0 0 33.234-33.234v-38.952a4.166 4.166 0 0 0-4.166-4.166H50.24Z"></path><path fill="url(#b)" d="M46.837 171.648c7.871-.149 9.188-2.291 17.143-2.291 3.506 0 6.997 1.128 10.503 2.18 4.494 1.347 9.003 2.618 13.496 2.618 4.494 0 9.003-1.271 13.496-2.618 3.507-1.052 6.998-2.18 10.504-2.18 3.507 0 6.998 1.128 10.504 2.18 4.494 1.347 9.002 2.618 13.496 2.618s9.002-1.271 13.496-2.618c3.506-1.052 6.997-2.18 10.504-2.18 3.506 0 6.997 1.128 10.503 2.18 4.494 1.347 9.003 2.618 13.496 2.618 4.597 0 7.98-.955 11.356-1.956 2.5-.741 4.992-1.527 8.396-1.527 3.947 0 6.239 1.01 8.328 1.785 2.26.839 4.381 1.476 7.022 1.496l.077-10.416c-1.823-.014-3.154-.736-4.797-1.338-2.68-.98-5.821-1.943-10.63-1.943-4.596 0-7.98.955-11.356 1.956-2.5.741-4.992 1.527-8.396 1.527-3.506 0-6.997-1.128-10.503-2.18-4.494-1.348-9.003-2.619-13.496-2.619-4.494 0-9.003 1.271-13.496 2.619-3.507 1.052-6.998 2.18-10.504 2.18-3.506 0-6.997-1.128-10.504-2.18-4.493-1.348-9.002-2.619-13.496-2.619-4.493 0-9.002 1.271-13.496 2.619-3.506 1.052-6.997 2.18-10.504 2.18-3.506 0-6.997-1.128-10.503-2.18-4.494-1.348-9.003-2.619-13.496-2.619-8.045 0-9.38 2.142-17.341 2.293l.198 10.415Z"></path><path fill="url(#c)" d="M68.87 196.371h7.483a4.169 4.169 0 0 0 4.166-4.167 4.168 4.168 0 0 0-4.166-4.166H68.87a4.168 4.168 0 0 0-4.166 4.166c0 2.3 1.867 4.167 4.166 4.167Z"></path><path fill="url(#d)" d="M99.234 209.539h7.482c2.3 0 4.167-1.867 4.167-4.167a4.169 4.169 0 0 0-4.167-4.166h-7.482a4.168 4.168 0 0 0-4.166 4.166c0 2.3 1.867 4.167 4.166 4.167Z"></path><path fill="url(#e)" d="M125.851 192.591h7.482c2.3 0 4.167-1.867 4.167-4.167a4.169 4.169 0 0 0-4.167-4.166h-7.482a4.169 4.169 0 0 0-4.167 4.166c0 2.3 1.867 4.167 4.167 4.167Z"></path><path fill="url(#f)" d="M158.927 208.235h7.482c2.3 0 4.167-1.867 4.167-4.167s-1.867-4.167-4.167-4.167h-7.482a4.169 4.169 0 0 0-4.167 4.167c0 2.3 1.867 4.167 4.167 4.167Z"></path><path fill="url(#g)" d="M196.591 198.503h7.482c2.3 0 4.167-1.867 4.167-4.167a4.169 4.169 0 0 0-4.167-4.166h-7.482a4.169 4.169 0 0 0-4.167 4.166c0 2.3 1.867 4.167 4.167 4.167Z"></path><path fill="url(#h)" d="M50.24 149.264h165.265a6.254 6.254 0 0 0 6.25-6.25c0-3.45-2.801-6.25-6.25-6.25H50.24c-3.449 0-6.25 2.8-6.25 6.25a6.254 6.254 0 0 0 6.25 6.25Z"></path><path fill="url(#i)" d="m204.389 88.656-3.217 8.693-8.694 3.217a7.155 7.155 0 0 0 0 13.419l8.694 3.217 3.217 8.693a7.152 7.152 0 0 0 13.418 0l3.217-8.693 8.694-3.217a7.155 7.155 0 0 0 0-13.419l-8.694-3.217-3.217-8.693a7.154 7.154 0 0 0-13.418 0ZM55.097 57.055l-4.901 13.247-13.247 4.902a7.153 7.153 0 0 0 0 13.418l13.246 4.902 4.902 13.247a7.155 7.155 0 0 0 13.419 0l4.901-13.247 13.247-4.902a7.153 7.153 0 0 0 0-13.418l-13.246-4.902-4.902-13.247a7.155 7.155 0 0 0-13.419 0Z"></path><path fill="url(#j)" fill-rule="nonzero" d="M134.267 122.4s11.482.362 22.68-14.139c8.579-11.109 9.735-26.738 9.735-51.308a4.167 4.167 0 0 0-3.909-4.159c-17.267-1.071-25.384-9.958-25.384-9.958a4.168 4.168 0 0 0-6.248 0s-8.116 8.887-25.382 9.958a4.167 4.167 0 0 0-3.909 4.159c0 24.569 1.155 40.199 9.735 51.308 11.199 14.501 22.681 14.139 22.681 14.139h.001Z"></path><path fill="#fbfaf9" d="M128.016 75.663h-8.8a2.084 2.084 0 0 0-2.084 2.084v8.333a2.084 2.084 0 0 0 2.084 2.083h8.8v8.801a2.084 2.084 0 0 0 2.084 2.083h8.333a2.083 2.083 0 0 0 2.083-2.083v-8.801h8.801a2.083 2.083 0 0 0 2.083-2.083v-8.333a2.084 2.084 0 0 0-2.083-2.084h-8.801v-8.8a2.084 2.084 0 0 0-2.083-2.084H130.1a2.085 2.085 0 0 0-2.084 2.084v8.8Z"></path><defs><linearGradient id="a" x1="0" x2="1" y1="0" y2="0" gradientTransform="rotate(-90 179.287 45.953) scale(76.3527)" gradientUnits="userSpaceOnUse"><stop offset="0" stop-color="#fed29d"></stop><stop offset="1" stop-color="#fbbf9b"></stop></linearGradient><linearGradient id="b" x1="0" x2="1" y1="0" y2="0" gradientTransform="translate(43.99 170.794) scale(177.765)" gradientUnits="userSpaceOnUse"><stop offset="0" stop-color="#faa987"></stop><stop offset="1" stop-color="#de855f"></stop></linearGradient><linearGradient id="c" x1="0" x2="1" y1="0" y2="0" gradientTransform="translate(43.99 170.794) scale(177.765)" gradientUnits="userSpaceOnUse"><stop offset="0" stop-color="#faa987"></stop><stop offset="1" stop-color="#de855f"></stop></linearGradient><linearGradient id="d" x1="0" x2="1" y1="0" y2="0" gradientTransform="translate(43.99 170.794) scale(177.765)" gradientUnits="userSpaceOnUse"><stop offset="0" stop-color="#faa987"></stop><stop offset="1" stop-color="#de855f"></stop></linearGradient><linearGradient id="e" x1="0" x2="1" y1="0" y2="0" gradientTransform="translate(43.99 170.794) scale(177.765)" gradientUnits="userSpaceOnUse"><stop offset="0" stop-color="#faa987"></stop><stop offset="1" stop-color="#de855f"></stop></linearGradient><linearGradient id="f" x1="0" x2="1" y1="0" y2="0" gradientTransform="translate(43.99 170.794) scale(177.765)" gradientUnits="userSpaceOnUse"><stop offset="0" stop-color="#faa987"></stop><stop offset="1" stop-color="#de855f"></stop></linearGradient><linearGradient id="g" x1="0" x2="1" y1="0" y2="0" gradientTransform="translate(43.99 170.794) scale(177.765)" gradientUnits="userSpaceOnUse"><stop offset="0" stop-color="#faa987"></stop><stop offset="1" stop-color="#de855f"></stop></linearGradient><linearGradient id="h" x1="0" x2="1" y1="0" y2="0" gradientTransform="matrix(177.765 0 0 12.5 43.99 143.014)" gradientUnits="userSpaceOnUse"><stop offset="0" stop-color="#f5c99b"></stop><stop offset="1" stop-color="#eba761"></stop></linearGradient><linearGradient id="i" x1="0" x2="1" y1="0" y2="0" gradientTransform="rotate(90 36.843 91.833) scale(73.4506)" gradientUnits="userSpaceOnUse"><stop offset="0" stop-color="#ffd541"></stop><stop offset="1" stop-color="#ffa501"></stop></linearGradient><linearGradient id="j" x1="0" x2="1" y1="0" y2="0" gradientTransform="rotate(75.545 28.487 102.652) scale(99.953)" gradientUnits="userSpaceOnUse"><stop offset="0" stop-color="#fe8e92"></stop><stop offset="1" stop-color="#ef484e"></stop></linearGradient></defs></svg>