<svg xmlns="http://www.w3.org/2000/svg" viewBox="0 0 64 64"><g fill="#34a853" class="color000000 svgShape" data-name="Outline"><path d="M48 7h-5.184A3 3 0 0 0 40 5h-2.5a6.64 6.64 0 0 0-11 0H24a3 3 0 0 0-2.816 2H16a9.01 9.01 0 0 0-9 9v37a9.01 9.01 0 0 0 9 9h32a9.01 9.01 0 0 0 9-9V16a9.01 9.01 0 0 0-9-9ZM23 8a1 1 0 0 1 1-1h3.078a1 1 0 0 0 .895-.553 4.605 4.605 0 0 1 8.054 0 1 1 0 0 0 .895.553H40a1 1 0 0 1 1 1v5a1 1 0 0 1-1 1H24a1 1 0 0 1-1-1Zm1 8h16a3 3 0 0 0 3-3h5a3 3 0 0 1 3 3v37a3 3 0 0 1-3 3H16a3 3 0 0 1-3-3V16a3 3 0 0 1 3-3h5a3 3 0 0 0 3 3Zm31 37a7.008 7.008 0 0 1-7 7H16a7.008 7.008 0 0 1-7-7V16a7.008 7.008 0 0 1 7-7h5v2h-5a5.006 5.006 0 0 0-5 5v37a5.006 5.006 0 0 0 5 5h32a5.006 5.006 0 0 0 5-5V16a5.006 5.006 0 0 0-5-5h-5V9h5a7.008 7.008 0 0 1 7 7Z" class="color000000 svgShape"></path><circle cx="32" cy="7" r="1" class="color000000 svgShape"></circle><path d="M20.235 34.833a14.379 14.379 0 0 0 5.4 7.851 7.065 7.065 0 0 0 5.28 1.212 5.528 5.528 0 0 1 2.3.006 7.037 7.037 0 0 0 5.244-1.217 14.387 14.387 0 0 0 5.4-7.858c1.014-3.6.383-7.029-1.731-9.4a7.982 7.982 0 0 0-3.469-2.271 9.505 9.505 0 0 0 .915-2.4 1.848 1.848 0 0 0-2.074-2.227 8.061 8.061 0 0 0-4.224 1.871 6.389 6.389 0 0 0-.509.553 4.278 4.278 0 0 0-2.761-2.582 1 1 0 1 0-.632 1.9 2.664 2.664 0 0 1 1.748 2.829 12.312 12.312 0 0 1-1.869-.245 8 8 0 0 0-7.289 2.577c-2.114 2.368-2.745 5.792-1.729 9.401Zm14.4-12.967a5.77 5.77 0 0 1 2.922-1.321 6.413 6.413 0 0 1-1.03 2.224 12.273 12.273 0 0 0-2.777.256 4.621 4.621 0 0 1 .888-1.159Zm-11.178 4.893a6 6 0 0 1 5.416-1.946 15.521 15.521 0 0 0 6.306.006 6.02 6.02 0 0 1 5.448 1.94c1.651 1.85 2.124 4.594 1.3 7.519a12.4 12.4 0 0 1-4.641 6.783 5.009 5.009 0 0 1-3.7.876 7.6 7.6 0 0 0-3.041-.007 5 5 0 0 1-3.741-.87 12.385 12.385 0 0 1-4.64-6.776c-.831-2.931-.358-5.675 1.293-7.525Z" class="color000000 svgShape"></path><path d="M24.788 30.233a1 1 0 0 0 1.357-.4 2.058 2.058 0 0 1 1.839-1.093 1 1 0 1 0-.09-2 4.044 4.044 0 0 0-3.5 2.132 1 1 0 0 0 .394 1.361Z" class="color000000 svgShape"></path><circle cx="25" cy="33" r="1" class="color000000 svgShape"></circle><path d="M46 51H18a1 1 0 0 0 0 2h28a1 1 0 0 0 0-2zm-29-4a1 1 0 0 0 1 1h28a1 1 0 0 0 0-2H18a1 1 0 0 0-1 1z" class="color000000 svgShape"></path></g></svg>