<svg xmlns="http://www.w3.org/2000/svg" viewBox="0 0 32 32"><path fill="#d1e6e9" d="M25,1a4,4,0,0,0-3.71,5.47L6.47,21.29c-4.88-1.91-7.77,5.24-3.11,7.35,2.11,4.64,9.27,1.79,7.35-3.11L25.53,10.71A4,4,0,0,0,28.7,3.39,4.24,4.24,0,0,0,25,1Z"></path><path fill="#a1d8df" d="M28.7 3.39a4.94 4.94 0 0 1-1.41 2.9l1.42 1.42a6.93 6.93 0 0 0 1.7-2.79A4 4 0 0 0 28.7 3.39zM3.3 28.61a4.94 4.94 0 0 1 1.41-2.9L3.29 24.29a6.93 6.93 0 0 0-1.7 2.79A4 4 0 0 0 3.3 28.61z"></path><path fill="#68c7d3" d="M12.7,6.07h2a0,0,0,0,1,0,0V20.35a0,0,0,0,1,0,0h-2a1,1,0,0,1-1-1V7.09A1,1,0,0,1,12.7,6.07Z" transform="rotate(45 13.208 13.21)"></path><path fill="#68c7d3" d="M16.58,8.94h5.1a0,0,0,0,1,0,0v2a0,0,0,0,1,0,0H15.56a0,0,0,0,1,0,0V10A1,1,0,0,1,16.58,8.94Z" transform="rotate(45 18.623 9.964)"></path><rect width="6.12" height="2.04" x="12.67" y="11.83" fill="#68c7d3" transform="rotate(45 15.73 12.845)"></rect><rect width="6.12" height="2.04" x="9.79" y="14.71" fill="#68c7d3" transform="rotate(45 12.853 15.734)"></rect><path fill="#68c7d3" d="M6.9,17.6H13a0,0,0,0,1,0,0v2a0,0,0,0,1,0,0H7.92a1,1,0,0,1-1-1v-1A0,0,0,0,1,6.9,17.6Z" transform="rotate(45 9.96 18.615)"></path><path fill="#30acc2" d="M13.93,7.35h1a0,0,0,0,1,0,0v3.06a0,0,0,0,1,0,0h-1a1,1,0,0,1-1-1v-1a1,1,0,0,1,1-1Z" transform="rotate(45 13.932 8.88)"></path><path fill="#30acc2" d="M8.88,12.4h1a0,0,0,0,1,0,0v3.06a0,0,0,0,1,0,0h-1a1,1,0,0,1-1-1v-1a1,1,0,0,1,1-1Z" transform="rotate(45 8.88 13.928)"></path></svg>