<svg xmlns="http://www.w3.org/2000/svg" data-name="Layer 3" viewBox="0 0 64 64"><path fill="#34a853" d="M60.121,22.707a5.828,5.828,0,0,0-8.242,0l-1.172,1.172a3.829,3.829,0,0,1-5.414,0l-1.172-1.172a5.815,5.815,0,0,0-7.986-.232A4.55,4.55,0,0,1,36,21.414,2.416,2.416,0,0,1,38.414,19H63V17H38.414A4.413,4.413,0,0,0,34,21.414a6.525,6.525,0,0,0,.993,3.461l.663,1.061A21.981,21.981,0,0,1,39,37.6a5.874,5.874,0,0,1-1.281,3.655,7.325,7.325,0,0,1-11.437,0A5.88,5.88,0,0,1,25,37.6a21.959,21.959,0,0,1,3.345-11.659l.662-1.062A6.525,6.525,0,0,0,30,21.414,4.413,4.413,0,0,0,25.586,17H1v2H25.586A2.416,2.416,0,0,1,28,21.414a4.55,4.55,0,0,1-.135,1.061,5.815,5.815,0,0,0-7.986.232l-1.172,1.172a3.829,3.829,0,0,1-5.414,0l-1.172-1.172a5.828,5.828,0,0,0-8.242,0L.293,26.293l1.414,1.414,3.586-3.586a3.829,3.829,0,0,1,5.414,0l1.172,1.172a5.828,5.828,0,0,0,8.242,0l1.172-1.172a3.829,3.829,0,0,1,5.414,0l.254.254-.313.5a24.2,24.2,0,0,0-1.285,2.367,4,4,0,1,0-2.2,7.666A23.809,23.809,0,0,0,23,37.6,7.881,7.881,0,0,0,24.721,42.5a9.323,9.323,0,0,0,14.559,0A7.883,7.883,0,0,0,41,37.6a24.062,24.062,0,0,0-.165-2.688,4,4,0,1,0-2.2-7.666,24.08,24.08,0,0,0-1.285-2.367l-.313-.5.254-.254a3.829,3.829,0,0,1,5.414,0l1.172,1.172a5.828,5.828,0,0,0,8.242,0l1.172-1.172a3.829,3.829,0,0,1,5.414,0l3.586,3.586,1.414-1.414Zm-36.65,10.2A1.988,1.988,0,0,1,24,29a1.984,1.984,0,0,1,.566.092A23.96,23.96,0,0,0,23.471,32.908ZM40,29a2,2,0,0,1,2,2,2.03,2.03,0,0,1-1.47,1.914,23.959,23.959,0,0,0-1.1-3.822A1.984,1.984,0,0,1,40,29Z" class="color000000 svgShape"></path><path fill="#34a853" d="M8 27a4 4 0 104 4A4 4 0 008 27zm0 6a2 2 0 112-2A2 2 0 018 33zM56 27a4 4 0 104 4A4 4 0 0056 27zm0 6a2 2 0 112-2A2 2 0 0156 33zM16 33.9a3 3 0 103 3A3 3 0 0016 33.9zm0 4a1 1 0 111-1A1 1 0 0116 37.9zM48 34a3 3 0 103 3A3 3 0 0048 34zm0 4a1 1 0 111-1A1 1 0 0148 38z" class="color000000 svgShape"></path><circle cx="24" cy="45" r="2" fill="#34a853" class="color000000 svgShape"></circle><circle cx="40" cy="45" r="2" fill="#34a853" class="color000000 svgShape"></circle><circle cx="56" cy="45" r="2" fill="#34a853" class="color000000 svgShape"></circle><circle cx="8" cy="45" r="2" fill="#34a853" class="color000000 svgShape"></circle><path fill="#34a853" d="M32,41a5.006,5.006,0,0,0,5-5c0-2.338-3.657-11.358-4.074-12.379a1,1,0,0,0-1.852,0C30.657,24.642,27,33.662,27,36A5.006,5.006,0,0,0,32,41Zm0-14.3c1.41,3.629,3,8.1,3,9.3a3,3,0,0,1-6,0C29,34.809,30.59,30.333,32,26.7Z" class="color000000 svgShape"></path></svg>