<svg xmlns="http://www.w3.org/2000/svg" viewBox="0 0 32 32"><path fill="#d1e6e9" d="M28,24.62V31H4V24.62a4,4,0,0,1,3.6-4l3.59-.36L14,20h4l6.4.64A4,4,0,0,1,28,24.62Z"></path><polygon fill="#d1e6e9" points="14 17 14 20 16 24 18 20 18 17 14 17"></polygon><rect width="16" height="4" x="8" y="10" fill="#d1e6e9" rx="2"></rect><path fill="#d1e6e9" d="M10,8H22a0,0,0,0,1,0,0v6a6,6,0,0,1-6,6h0a6,6,0,0,1-6-6V8a0,0,0,0,1,0,0Z"></path><path fill="#68c7d3" d="M9,10V6.71A5.71,5.71,0,0,1,14.71,1h1.93A5.61,5.61,0,0,1,19,1.52a5.42,5.42,0,0,1,1.67,1.15A2.22,2.22,0,0,0,21,3h0a2.26,2.26,0,0,0,.42.26A2.86,2.86,0,0,1,23,5.77V10h-.76A3.61,3.61,0,0,1,19,8h0a18.87,18.87,0,0,1-8.47,2Z"></path><path fill="#30acc2" d="M19,8a3.61,3.61,0,0,0,3.24,2H23V5.77a2.86,2.86,0,0,0-1.58-2.56A2.26,2.26,0,0,1,21,3V4.76A3.61,3.61,0,0,1,19,8Z"></path><rect width="2" height="4" x="8" y="27" fill="#a1d8df"></rect><rect width="2" height="4" x="22" y="27" fill="#a1d8df" transform="rotate(-180 23 29)"></rect><circle cx="16" cy="25" r="1" fill="#a1d8df"></circle><circle cx="20" cy="23" r="1" fill="#a1d8df"></circle><circle cx="19" cy="28" r="1" fill="#a1d8df"></circle><circle cx="25" cy="25" r="1" fill="#a1d8df"></circle><circle cx="7" cy="25" r="1" fill="#a1d8df"></circle><circle cx="12" cy="23" r="1" fill="#a1d8df"></circle><circle cx="13" cy="28" r="1" fill="#a1d8df"></circle><circle cx="16" cy="18" r="1" fill="#a1d8df"></circle><circle cx="13" cy="16" r="1" fill="#a1d8df"></circle><circle cx="19" cy="16" r="1" fill="#a1d8df"></circle></svg>