<svg xmlns="http://www.w3.org/2000/svg" viewBox="0 0 512 512"><g data-name="42. Scalpel"><path fill="#f6f6f6" d="M474.5 8 277.81 204.69 312 238.9a87.57 87.57 0 0 1 62-25.66h15l85.52-85.52A84.65 84.65 0 0 0 474.5 8Z"></path><path fill="#dcdcdc" d="m474.5 8-2.5 2.49a84.7 84.7 0 0 1-14.6 100.13l-85.52 85.52h-15a87.63 87.63 0 0 0-61.94 25.65c.1 0-1.07-1.07 17.11 17.11A87.43 87.43 0 0 1 374 213.24h15l85.52-85.52A84.65 84.65 0 0 0 474.5 8Z"></path><path d="m306.36 244.55-34.21-34.2a8 8 0 0 1 0-11.32L468.84 2.34a8 8 0 0 1 11.32 0 92.62 92.62 0 0 1 0 131l-85.52 85.56a8 8 0 0 1-5.66 2.34H374a79.09 79.09 0 0 0-56.28 23.31 8 8 0 0 1-11.36 0Zm-17.24-39.86 23.13 23.12A94.86 94.86 0 0 1 374 205.24h11.72l83.17-83.17a76.64 76.64 0 0 0 5.32-102.47Z"></path><path fill="#eaf2ff" d="M329.12 256 95.29 489.83a48.38 48.38 0 0 1-68.42-68.41l233.84-233.83Z"></path><path fill="#c1d1f7" d="M312 238.9 78.18 472.73a48.38 48.38 0 0 1-58.77 7.46 48.39 48.39 0 0 0 75.88 9.64L329.12 256Z"></path><path d="M61.08 512a56.38 56.38 0 0 1-39.86-96.24L143.88 293.1a8 8 0 1 1 11.31 11.32L32.53 427.07a40.38 40.38 0 1 0 57.1 57.1l20-20A8 8 0 1 1 121 475.45l-20 20A56 56 0 0 1 61.08 512zM141 452.14a8 8 0 0 1-5.66-13.66L317.81 256l-57.1-57.1-79.86 79.86a8 8 0 1 1-11.32-11.31l85.52-85.52a8 8 0 0 1 11.31 0l68.42 68.41a8 8 0 0 1 0 11.32L146.64 449.79a8 8 0 0 1-5.64 2.35z"></path><path fill="#a8edfd" d="m72.572 375.727 25.654-25.654 68.413 68.412-25.654 25.654z"></path><path fill="#8bd4de" d="m123.878 427.033 25.654-25.654 17.105 17.105-25.654 25.654z"></path><path d="m135.32 449.79-68.41-68.41a8 8 0 0 1 0-11.31l25.66-25.66a8 8 0 0 1 11.31 0l68.41 68.42a8 8 0 0 1 0 11.31l-25.65 25.65a8 8 0 0 1-11.32 0Zm-51.44-74.07 57.1 57.1 14.34-14.34-57.1-57.1Z"></path><path fill="#a8edfd" d="m175.193 273.11 25.654-25.654 68.412 68.413-25.654 25.653z"></path><path fill="#8bd4de" d="m226.498 324.407 25.654-25.654 17.104 17.105-25.653 25.653z"></path><path d="m238 347.17-68.42-68.41a8 8 0 0 1 0-11.31l25.66-25.66a8 8 0 0 1 11.31 0l68.41 68.42a8 8 0 0 1 0 11.31l-25.65 25.65a8 8 0 0 1-11.31 0Zm-51.5-74.07 57.1 57.1 14.34-14.34-57.1-57.1Z"></path></g></svg>